{
	"asset":{
		"generator":"Khronos glTF Blender I/O v4.0.44",
		"version":"2.0"
	},
	"scene":0,
	"scenes":[
		{
			"name":"Scene",
			"nodes":[
				0,
				1,
				2,
				3,
				4,
				5,
				6
			]
		}
	],
	"nodes":[
		{
			"mesh":0,
			"name":"Slide",
			"translation":[
				0,
				-0.9067129492759705,
				-1.4983816146850586
			]
		},
		{
			"name":"Reference",
			"rotation":[
				0.5,
				0.5,
				-0.5,
				0.5
			]
		},
		{
			"mesh":1,
			"name":"Receiver",
			"scale":[
				0.10998997092247009,
				0.11969029158353806,
				0.11969029158353806
			],
			"translation":[
				0,
				0.19595187902450562,
				0.7243492603302002
			]
		},
		{
			"mesh":2,
			"name":"Trigger",
			"scale":[
				0.12423431873321533,
				0.12423431873321533,
				0.12423431873321533
			],
			"translation":[
				0,
				0.029987215995788574,
				-0.01355743408203125
			]
		},
		{
			"mesh":3,
			"name":"Internal Chamber in Slide",
			"scale":[
				0.0713941752910614,
				0.0713941752910614,
				0.0713941752910614
			],
			"translation":[
				0,
				0.4360995888710022,
				-0.00325775146484375
			]
		},
		{
			"mesh":4,
			"name":"Cylinder",
			"rotation":[
				-0.7071068286895752,
				0,
				0,
				0.7071068286895752
			],
			"scale":[
				0.06724080443382263,
				0.06724080443382263,
				0.06724080443382263
			],
			"translation":[
				0,
				0.41358238458633423,
				-1.1021279096603394
			]
		},
		{
			"mesh":5,
			"name":"Magazine",
			"rotation":[
				-0.0671866238117218,
				0,
				0,
				0.9977404475212097
			],
			"scale":[
				0.09638118743896484,
				0.09638118743896484,
				0.09638118743896484
			],
			"translation":[
				0,
				0.0782301127910614,
				0.4040173292160034
			]
		}
	],
	"materials":[
		{
			"doubleSided":true,
			"name":"Gun Metal Black 2",
			"pbrMetallicRoughness":{
				"baseColorFactor":[
					0.029099592939019203,
					0.029099592939019203,
					0.029099592939019203,
					1
				],
				"metallicFactor":0,
				"roughnessFactor":0.5
			}
		},
		{
			"doubleSided":true,
			"name":"Gun Metal Black 1",
			"pbrMetallicRoughness":{
				"baseColorFactor":[
					0,
					0,
					0,
					1
				],
				"metallicFactor":0,
				"roughnessFactor":0.5
			}
		},
		{
			"doubleSided":true,
			"name":"Gun Metal Grey",
			"pbrMetallicRoughness":{
				"baseColorFactor":[
					0.19017818570137024,
					0.19017818570137024,
					0.19017818570137024,
					1
				],
				"metallicFactor":0,
				"roughnessFactor":0.5
			}
		}
	],
	"meshes":[
		{
			"name":"Cube",
			"primitives":[
				{
					"attributes":{
						"POSITION":0,
						"NORMAL":1,
						"TEXCOORD_0":2
					},
					"indices":3,
					"material":0
				}
			]
		},
		{
			"name":"Cube.001",
			"primitives":[
				{
					"attributes":{
						"POSITION":4,
						"NORMAL":5,
						"TEXCOORD_0":6
					},
					"indices":7,
					"material":1
				}
			]
		},
		{
			"name":"Cube.002",
			"primitives":[
				{
					"attributes":{
						"POSITION":8,
						"NORMAL":9,
						"TEXCOORD_0":10
					},
					"indices":11,
					"material":2
				}
			]
		},
		{
			"name":"Cube.003",
			"primitives":[
				{
					"attributes":{
						"POSITION":12,
						"NORMAL":13,
						"TEXCOORD_0":14
					},
					"indices":15,
					"material":2
				}
			]
		},
		{
			"name":"Cylinder",
			"primitives":[
				{
					"attributes":{
						"POSITION":16,
						"NORMAL":17,
						"TEXCOORD_0":18
					},
					"indices":19,
					"material":2
				}
			]
		},
		{
			"name":"Cube.004",
			"primitives":[
				{
					"attributes":{
						"POSITION":20,
						"NORMAL":21,
						"TEXCOORD_0":22
					},
					"indices":23,
					"material":2
				}
			]
		}
	],
	"accessors":[
		{
			"bufferView":0,
			"componentType":5126,
			"count":1006,
			"max":[
				0.11153233051300049,
				1.4585201740264893,
				2.312596321105957
			],
			"min":[
				-0.11153233051300049,
				1.2195637226104736,
				0.3675445318222046
			],
			"type":"VEC3"
		},
		{
			"bufferView":1,
			"componentType":5126,
			"count":1006,
			"type":"VEC3"
		},
		{
			"bufferView":2,
			"componentType":5126,
			"count":1006,
			"type":"VEC2"
		},
		{
			"bufferView":3,
			"componentType":5123,
			"count":3180,
			"type":"SCALAR"
		},
		{
			"bufferView":4,
			"componentType":5126,
			"count":1270,
			"max":[
				0.9774712324142456,
				1.0570228099822998,
				1.9759955406188965
			],
			"min":[
				-0.9794038534164429,
				-7.805333614349365,
				-15.547750473022461
			],
			"type":"VEC3"
		},
		{
			"bufferView":5,
			"componentType":5126,
			"count":1270,
			"type":"VEC3"
		},
		{
			"bufferView":6,
			"componentType":5126,
			"count":1270,
			"type":"VEC2"
		},
		{
			"bufferView":7,
			"componentType":5123,
			"count":3192,
			"type":"SCALAR"
		},
		{
			"bufferView":8,
			"componentType":5126,
			"count":84,
			"max":[
				0.1275719553232193,
				1.5288605690002441,
				1.2439725399017334
			],
			"min":[
				-0.12757189571857452,
				-1.0360913276672363,
				-0.5760295391082764
			],
			"type":"VEC3"
		},
		{
			"bufferView":9,
			"componentType":5126,
			"count":84,
			"type":"VEC3"
		},
		{
			"bufferView":10,
			"componentType":5126,
			"count":84,
			"type":"VEC2"
		},
		{
			"bufferView":11,
			"componentType":5123,
			"count":156,
			"type":"SCALAR"
		},
		{
			"bufferView":12,
			"componentType":5126,
			"count":32,
			"max":[
				1.4890904426574707,
				0.9999999403953552,
				3.0453920364379883
			],
			"min":[
				0.27128785848617554,
				-0.9999999403953552,
				-4.378248691558838
			],
			"type":"VEC3"
		},
		{
			"bufferView":13,
			"componentType":5126,
			"count":32,
			"type":"VEC3"
		},
		{
			"bufferView":14,
			"componentType":5126,
			"count":32,
			"type":"VEC2"
		},
		{
			"bufferView":15,
			"componentType":5123,
			"count":60,
			"type":"SCALAR"
		},
		{
			"bufferView":16,
			"componentType":5126,
			"count":450,
			"max":[
				1.0000008344650269,
				1,
				1
			],
			"min":[
				-1,
				-14.734472274780273,
				-1
			],
			"type":"VEC3"
		},
		{
			"bufferView":17,
			"componentType":5126,
			"count":450,
			"type":"VEC3"
		},
		{
			"bufferView":18,
			"componentType":5126,
			"count":450,
			"type":"VEC2"
		},
		{
			"bufferView":19,
			"componentType":5123,
			"count":948,
			"type":"SCALAR"
		},
		{
			"bufferView":20,
			"componentType":5126,
			"count":82,
			"max":[
				0.8852185010910034,
				1.1969571113586426,
				3.638246536254883
			],
			"min":[
				-0.8852185010910034,
				-9.65831470489502,
				-1.6265814304351807
			],
			"type":"VEC3"
		},
		{
			"bufferView":21,
			"componentType":5126,
			"count":82,
			"type":"VEC3"
		},
		{
			"bufferView":22,
			"componentType":5126,
			"count":82,
			"type":"VEC2"
		},
		{
			"bufferView":23,
			"componentType":5123,
			"count":204,
			"type":"SCALAR"
		}
	],
	"bufferViews":[
		{
			"buffer":0,
			"byteLength":12072,
			"byteOffset":0,
			"target":34962
		},
		{
			"buffer":0,
			"byteLength":12072,
			"byteOffset":12072,
			"target":34962
		},
		{
			"buffer":0,
			"byteLength":8048,
			"byteOffset":24144,
			"target":34962
		},
		{
			"buffer":0,
			"byteLength":6360,
			"byteOffset":32192,
			"target":34963
		},
		{
			"buffer":0,
			"byteLength":15240,
			"byteOffset":38552,
			"target":34962
		},
		{
			"buffer":0,
			"byteLength":15240,
			"byteOffset":53792,
			"target":34962
		},
		{
			"buffer":0,
			"byteLength":10160,
			"byteOffset":69032,
			"target":34962
		},
		{
			"buffer":0,
			"byteLength":6384,
			"byteOffset":79192,
			"target":34963
		},
		{
			"buffer":0,
			"byteLength":1008,
			"byteOffset":85576,
			"target":34962
		},
		{
			"buffer":0,
			"byteLength":1008,
			"byteOffset":86584,
			"target":34962
		},
		{
			"buffer":0,
			"byteLength":672,
			"byteOffset":87592,
			"target":34962
		},
		{
			"buffer":0,
			"byteLength":312,
			"byteOffset":88264,
			"target":34963
		},
		{
			"buffer":0,
			"byteLength":384,
			"byteOffset":88576,
			"target":34962
		},
		{
			"buffer":0,
			"byteLength":384,
			"byteOffset":88960,
			"target":34962
		},
		{
			"buffer":0,
			"byteLength":256,
			"byteOffset":89344,
			"target":34962
		},
		{
			"buffer":0,
			"byteLength":120,
			"byteOffset":89600,
			"target":34963
		},
		{
			"buffer":0,
			"byteLength":5400,
			"byteOffset":89720,
			"target":34962
		},
		{
			"buffer":0,
			"byteLength":5400,
			"byteOffset":95120,
			"target":34962
		},
		{
			"buffer":0,
			"byteLength":3600,
			"byteOffset":100520,
			"target":34962
		},
		{
			"buffer":0,
			"byteLength":1896,
			"byteOffset":104120,
			"target":34963
		},
		{
			"buffer":0,
			"byteLength":984,
			"byteOffset":106016,
			"target":34962
		},
		{
			"buffer":0,
			"byteLength":984,
			"byteOffset":107000,
			"target":34962
		},
		{
			"buffer":0,
			"byteLength":656,
			"byteOffset":107984,
			"target":34962
		},
		{
			"buffer":0,
			"byteLength":408,
			"byteOffset":108640,
			"target":34963
		}
	],
	"buffers":[
		{
			"byteLength":109048,
			"uri":"gun.bin"
		}
	]
}
